<?xml version="1.0" encoding="UTF-8"?>
<svg id="Layer_1" xmlns="http://www.w3.org/2000/svg" version="1.1" viewBox="0 0 847.89 260.13">
  <defs>
    <style>
      .st0 {
        fill: #fcc512;
      }

      .st1 {
        fill: #43b5e8;
      }

      .st2 {
        fill: #0a9748;
      }

      .st3 {
        fill: #844393;
      }

      .st4 {
        fill: #0269af;
      }

      .st5 {
        fill: #fdec09;
      }

      .st6 {
        fill: #fff;
      }

      .st7 {
        fill: #e32726;
      }
    </style>
  </defs>
  <g>
    <g>
      <path class="st6" d="M443.39,36.27c6.3,5.4,9.4,13.6,9.4,24.7s-3.2,19.2-9.7,24.3c-6.5,5.1-16.3,7.7-29.6,7.7h-11.9v25h-20V28.17h31.7c13.8,0,23.8,2.7,30.1,8v.1ZM428.69,71.57c2.4-2.7,3.6-6.6,3.6-11.8s-1.6-8.9-4.7-11c-3.1-2.2-8-3.3-14.6-3.3h-11.4v30.2h13.5c6.7,0,11.2-1.3,13.6-4v-.1Z"/>
      <path class="st6" d="M533.19,28.27v17.8h-44.7v18.5h40.2v17.1h-40.2v18.6h46.1v17.7h-66.1V28.17h64.7v.1Z"/>
      <path class="st6" d="M615.29,28.27h20v89.8h-20l-42.8-56.2v56.2h-20V28.27h18.7l44,57.8V28.27h.1Z"/>
    </g>
    <g>
      <path class="st6" d="M443.69,185.17h20.2v31.8c-8.9,9.9-21.2,14.9-37,14.9s-24.2-4.4-33.2-13.1c-8.9-8.7-13.4-19.8-13.4-33.1s4.6-24.4,13.7-33.3c9.1-8.9,20.1-13.4,33-13.4s24.1,4.2,33.6,12.7l-10.4,15c-4-3.5-7.7-5.9-11.1-7.3-3.4-1.3-7-2-11-2-7.6,0-14,2.6-19.3,7.8-5.2,5.2-7.8,12-7.8,20.5s2.5,15.3,7.5,20.4,11,7.6,17.9,7.6,12.7-1.3,17.3-4v-24.7.2Z"/>
      <path class="st6" d="M554.49,170.87c0,14.4-5.7,23.7-17.1,27.9l22.7,32.1h-24.7l-19.9-28.6h-13.9v28.6h-20v-89.8h34c14,0,23.9,2.4,29.9,7.1,5.9,4.7,8.9,12.3,8.9,22.7h.1ZM530.39,181.57c2.5-2.2,3.7-5.8,3.7-10.6s-1.3-8.2-3.9-10-7.1-2.7-13.5-2.7h-15v26.6h14.6c6.8,0,11.5-1.1,14-3.3h.1Z"/>
      <path class="st6" d="M649.69,218.47c-9.1,8.9-20.2,13.3-33.5,13.3s-24.4-4.4-33.5-13.3c-9.1-8.9-13.6-19.9-13.6-33.1s4.5-24.2,13.6-33.1c9.1-8.9,20.2-13.3,33.5-13.3s24.4,4.4,33.5,13.3c9.1,8.9,13.6,19.9,13.6,33.1s-4.5,24.2-13.6,33.1ZM642.89,185.47c0-8-2.6-14.8-7.7-20.5-5.1-5.7-11.5-8.5-18.9-8.5s-13.8,2.8-18.9,8.5c-5.1,5.6-7.7,12.5-7.7,20.5s2.6,14.8,7.7,20.4c5.1,5.6,11.4,8.4,18.9,8.4s13.8-2.8,18.9-8.4c5.1-5.6,7.7-12.4,7.7-20.4Z"/>
      <path class="st6" d="M703.99,207.67c3.3,4.2,7.8,6.2,13.5,6.2s10.1-2.1,13.4-6.2c3.3-4.2,4.9-9.8,4.9-17v-49.6h20v50.2c0,13-3.6,23-10.8,30s-16.4,10.5-27.6,10.5-20.4-3.5-27.7-10.5c-7.2-7-10.9-17-10.9-29.9v-50.2h20v49.6c0,7.2,1.7,12.9,5,17l.2-.1Z"/>
      <path class="st6" d="M838.49,149.17c6.3,5.4,9.4,13.6,9.4,24.7s-3.2,19.2-9.7,24.3-16.3,7.7-29.6,7.7h-11.9v25h-20v-89.8h31.7c13.8,0,23.8,2.7,30.1,8v.1ZM823.79,184.47c2.4-2.7,3.6-6.6,3.6-11.8s-1.6-8.9-4.7-11c-3.1-2.2-8-3.3-14.6-3.3h-11.4v30.2h13.5c6.7,0,11.2-1.3,13.6-4v-.1Z"/>
    </g>
  </g>
  <g>
    <path class="st0" d="M111.89,93.17c5.6-22.2-5.1-45.9-26.6-55.9-.4-.2-.7-.3-1.1-.5,4.3-17,17.6-31.1,35.8-35.4,25.7-6.2,51.6,9.3,58.4,34.7-6.9,3.1-13.2,8-18.2,14.4-9.7,12.5-12.4,28.2-8.6,42.4-2.8,1.3-5.7,2.3-8.8,3-10.7,2.6-21.5,1.4-30.9-2.7h0Z"/>
    <path class="st4" d="M151.49,92.87c-3.8-14.2-1.1-29.9,8.6-42.4,5-6.4,11.3-11.3,18.2-14.4.1.4.2.8.3,1.2,5.5,23.1-6.3,46.2-27.1,55.7h0v-.1Z"/>
    <path class="st4" d="M176.49,123.67c-2.7-1.4-5.3-3-7.8-5-8.7-6.8-14.5-15.9-17.1-25.8,20.8-9.4,32.7-32.6,27.1-55.7,0-.4-.2-.8-.3-1.2,15.9-7.2,35.3-5.6,50,5.9,20.9,16.3,24.9,46.2,9.2,67.3-16.7-8.5-37.4-6.9-52.8,5.7-3.2,2.6-6,5.6-8.3,8.7h0v.1Z"/>
    <path class="st0" d="M111.89,93.17c-13.5-5.9-24.1-17.8-27.8-33.2-1.9-7.9-1.8-15.9,0-23.2.4.2.7.3,1.1.5,21.5,10,32.2,33.8,26.6,55.9h.1Z"/>
    <path class="st2" d="M69.29,109.77c-14.3-6.7-30.3-5.8-43.3,1-10.6-13.9-13.3-33.1-5.4-50.1,11.2-24,39.5-34.6,63.6-24-1.9,7.4-2,15.3-.1,23.2,3.7,15.4,14.3,27.3,27.8,33.2-.7,3-1.8,5.9-3.1,8.7-4.7,10-12.3,17.7-21.4,22.5-4.6-6.1-10.7-11.1-18.1-14.6h0v.1Z"/>
    <path class="st2" d="M44.09,125.37c-7.4-3.4-13.5-8.5-18.1-14.6,13-6.8,28.9-7.7,43.3-1,7.4,3.4,13.5,8.5,18.1,14.6-13,6.8-28.9,7.7-43.3,1h0Z"/>
    <path class="st1" d="M47.59,202.47c-6.6-.1-13.2-1.6-19.5-4.6C3.79,186.47-6.81,157.57,4.59,133.17c4.7-10,12.3-17.7,21.4-22.5,4.6,6.1,10.7,11.1,18.1,14.6,14.3,6.7,30.3,5.8,43.3-1,8.3,10.8,11.7,24.9,9.1,38.6-7.6-.2-15.4,1.4-22.7,5.1-14.2,7-23.4,20.1-26.2,34.5h0Z"/>
    <path class="st1" d="M47.59,202.47c2.8-14.4,12-27.4,26.2-34.5,7.3-3.6,15.1-5.2,22.7-5.1-.7,3.9-2,7.7-3.7,11.5-8.4,18-26.5,28.5-45.1,28.1h-.1Z"/>
    <path class="st7" d="M51.79,233.17c-4.9-9.9-6.1-20.6-4.2-30.7,18.7.4,36.7-10,45.1-28.1,1.8-3.8,3-7.6,3.7-11.5,13.6.3,26.8,6.4,35.8,16.9-4.9,5.9-8.5,12.9-10.2,20.9-3.3,15.5,1.1,30.8,10.7,42-4.2,5-9.5,9.3-15.7,12.4-24.1,11.9-53.3,2.1-65.2-21.9h0Z"/>
    <path class="st7" d="M132.79,242.77c-9.6-11.2-14-26.5-10.7-42,1.7-8,5.3-15.1,10.2-20.9,2.6,3,4.8,6.4,6.7,10.1,8.8,17.8,5.8,38.4-6.2,52.8h0Z"/>
    <path class="st3" d="M159.39,258.57c-10.8-2.3-20-8.1-26.6-15.8,12-14.4,15-35,6.2-52.8-1.8-3.7-4.1-7.1-6.7-10.1,8.7-10.5,21.7-17,35.6-17.5,1.5,7.5,4.8,14.7,10,21,10,12.3,24.8,18.4,39.5,17.8,1.3,6.4,1.4,13.2-.1,20-5.7,26.3-31.6,43-57.8,37.3h0l-.1.1Z"/>
    <path class="st5" d="M176.49,123.67c2.4-3.2,5.1-6.1,8.3-8.7,15.4-12.6,36.2-14.2,52.8-5.7-.2.3-.5.6-.7,1-14.6,18.7-40.1,23.9-60.5,13.5h0l.1-.1Z"/>
    <path class="st3" d="M177.89,183.37c-5.2-6.3-8.5-13.5-10-21,4-.1,8,.2,12,1.1,19.4,4.2,33.6,19.5,37.4,37.8-14.7.5-29.4-5.6-39.5-17.8h0l.1-.1Z"/>
    <path class="st5" d="M217.39,201.27c-3.8-18.3-18-33.6-37.4-37.8-4-.9-8.1-1.2-12-1.1-2.7-13.4.2-27.5,8.5-38.7,20.4,10.4,45.9,5.2,60.5-13.5.2-.3.5-.6.7-1,5.9,3,11.2,7.2,15.6,12.6,17,20.8,13.9,51.5-6.9,68.5-8.5,7-18.8,10.6-29,10.9h0v.1Z"/>
  </g>
  <rect class="st6" x="316.29" y="3.97" width="7.7" height="252.3"/>
</svg>
