<?xml version="1.0" encoding="utf-8"?>
<!-- Generator: Adobe Illustrator 29.4.0, SVG Export Plug-In . SVG Version: 9.03 Build 0)  -->
<svg version="1.0" id="Layer_1" xmlns="http://www.w3.org/2000/svg" xmlns:xlink="http://www.w3.org/1999/xlink" x="0px" y="0px"
	 viewBox="0 0 962.34 307.21" style="enable-background:new 0 0 962.34 307.21;" xml:space="preserve">
<style type="text/css">
	.st0{fill:#F5A123;}
	.st1{fill:#010101;}
	.st2{fill:#010101;stroke:#010101;stroke-width:0.6441;stroke-miterlimit:10;}
</style>
<g>
	<g>
		<g>
			<path class="st0" d="M30.93,73.01c-0.5,0-0.6-0.2-0.1-0.5C30.83,72.71,30.93,72.91,30.93,73.01z"/>
			<path class="st0" d="M105.13,56.41c-0.1-0.2-0.2-0.5-0.3-0.7C105.63,55.81,105.63,56.11,105.13,56.41z"/>
			<path class="st0" d="M172.63,37.31C172.63,37.41,172.63,37.41,172.63,37.31C172.23,37.41,172.13,37.41,172.63,37.31z"/>
			<path class="st0" d="M180.83,36.71c-0.1-0.2-0.2-0.4-0.2-0.7C181.23,36.31,181.23,36.51,180.83,36.71z"/>
			<path class="st0" d="M261.93,50.11c0-0.1,0-0.3,0-0.4C263.23,50.41,262.93,50.31,261.93,50.11z"/>
			<path class="st0" d="M339.73,61.51l-0.1-12.5l-9.8,7.7l-11.9-3.8l4.3,11.7l-7.3,10.2l8.1-0.3c-15.4,27.1-30.7,53.9-46.8,82.2
				c-4.9-35.2-9.3-70.2-14.1-104.6l7.5,4.5l-1.4-12.4l9.4-8.2l-12.2-2.5l-4.9-11.5l-6.1,10.9l-12.4,1.1l8.4,9.2l-2.8,12.2l7-3.2
				c-8.1,25.6-20,59.7-28.1,84.6c-1.5,4.5-3,8.9-5.1,15.1c-13.5-37.5-26-74.3-39.2-111.1l5.7,3l-2.1-12.3l8.9-8.7l-12.4-1.8
				l-5.5-11.2l-5.5,11.2l-12.4,1.8l8.9,8.7l-2.1,12.3l5.7-3c-11,35.7-21.9,72-33.3,109c-10.8-30.5-20.8-58.7-31.1-87.5l6.4,2.8
				l-3-12.1l8.3-9.3l-12.4-0.9l-6.3-10.8l-4.7,11.6l-12.2,2.6l9.5,8.1l-1.2,12.4l5.1-3.2c-5,29.9-10,59.3-15,88.6
				c-0.6,0.1-1.2,0.2-1.8,0.3c-13.4-26.1-26.7-52.3-40.1-78.4l6.8,1.7l-4.9-11.5l6.6-10.5l-12.4,1.1l-8-9.6l-2.8,12.2l-11.6,4.6
				l10.7,6.4l0.8,12.5l6.6-5.8c0.4,1.2,0.7,2.3,0.9,3.4c4.6,31.8,9.4,63.5,13.4,95.3c1.3,9.9,5.8,19.9,0.5,30.1
				c-0.6,1.1,0.7,3.1,1,4.7c0.8,3.4,2.1,6.8,2.2,10.3c0.3,11.5,0.4,22.9,0,34.4c-0.1,3.5-1.7,7.3-3.6,10.4
				c-4.1,6.5-3.5,12.5,3.1,16.5c4,2.4,8.5,4.6,13.1,5.3c19.8,3.1,39.7,6.6,59.7,8c49.4,3.5,98.9,3,148.1-3.1
				c12.9-1.6,25.8-4.7,38.1-9c9.2-3.2,10.1-11.5,4.1-18.9c-1-1.3-2.8-2.7-2.8-3.9c1.2-16.7-3.6-33.8,2.6-50.4
				c0.9-2.4-0.2-5.8-0.7-8.6c-0.4-2.7-2.2-5.4-1.8-7.8c6.9-37.7,14-75.3,21-112.9l4.1,5.5l3.4-12l11.8-4L339.73,61.51z M30.83,72.61
				c0,0.2,0.1,0.3,0.1,0.5C30.53,73.01,30.43,72.81,30.83,72.61z M105.13,56.41c-0.1-0.2-0.2-0.5-0.3-0.7
				C105.63,55.81,105.63,56.11,105.13,56.41z M76.03,282.01c-0.1-3.6,0.7-6.5,1.8-10.2c3.3,1.9,6.5,3.7,11.9,6.7
				C83.93,280.01,79.93,281.01,76.03,282.01z M91.53,249.11c1.1-11.3,11.7-16.6,19.2-10.5c2.3,1.8,4.1,8.2,2.9,9.7
				c-3,3.4-7.8,6.5-12.1,6.9C98.43,255.51,94.83,251.31,91.53,249.11z M108.03,289.01c1.3-5,2.1-8.1,2.8-11.2
				c4,1.3,6.8,2.2,11.3,3.6C117.33,284.01,113.73,286.01,108.03,289.01z M135.73,204.01c-5.2,11-15.9,12.5-24.1,3.3
				c2.4-3.7,9.7-8.9,1.4-11.6c-4.7-1.5-7.6-15.6-14.2-4.6c-8.6,14.2-7.6,14.8,0.4,18.1c-2.9,10.1-9.6,11.9-17.5,4.5
				c3.2-5.3,6.7-10.9-3.2-13.9c-0.8-0.3-1.1-9.7,1-11.5c14.8-11.8,31.8-19.4,50.8-21.8c1.5-0.2,3.3,1.9,4.9,3c0.4,5,1,8.6,0.9,12.1
				c0,3.2,0.3,8.2-1.4,9.2C125.33,196.31,130.53,200.11,135.73,204.01z M180.83,36.71c-0.1-0.2-0.2-0.4-0.2-0.7
				C181.23,36.31,181.23,36.51,180.83,36.71z M172.63,37.31C172.63,37.41,172.63,37.41,172.63,37.31
				C172.23,37.41,172.13,37.41,172.63,37.31z M145.53,289.31c0.4-4,0.8-7.2,1.2-10.4c4.3,1.1,7.4,2.2,12.3,4
				C153.93,285.41,150.23,287.11,145.53,289.31z M187.43,285.41c-3.2,1.5-5.4,2.5-7.8,3.6v-10.7c4.2,1.3,7.8,2.4,12.8,4
				C189.93,283.81,188.73,284.61,187.43,285.41z M191.73,260.41c-6.4,0.1-12.9,0.7-19.1-0.3c-3.1-0.5-5.7-4.1-8.6-6.2
				c-0.6-8.9,3.5-11.9,10.6-11.8c5.8,0.1,11.7-0.2,17.5,0.1c5.6,0.3,8.6,3.6,8.5,9.3C200.43,257.21,197.43,260.31,191.73,260.41z
				 M218.93,284.71c-2.9,1.7-4.8,2.8-7.1,4.1v-11.4c3.8,1,7.7,2.1,12.9,3.5C222.03,282.61,220.53,283.71,218.93,284.71z
				 M261.93,50.11c0-0.1,0-0.3,0-0.4C263.23,50.41,262.93,50.31,261.93,50.11z M246.93,286.31c-0.7-4.1-1.2-7.1-1.9-11
				c3.8,0.3,7.6,0.6,11.3,0.9C253.73,280.11,250.73,282.81,246.93,286.31z M267.63,247.71c-1.4,6.9-7.4,8.4-17.7,4.5
				c-5.7-4.1-8-9.6-3.4-13.1c3.6-2.8,10.1-3.1,15-2.4C267.03,237.41,268.63,242.51,267.63,247.71z M277.63,217.21
				c-6.7,2.8-10.9-0.7-14.3-7.1c4.8-2.6,12.2-6.2,6.1-10.8c-4.2-3.2-2-16.7-12-9.9c-12.9,8.8-12.6,10.3-5.9,17.1
				c-6,10-16.8,9.3-24.5-2.3c1.5-1,3.9-1.7,4.2-2.9c0.7-2.6,0.9-5.8,0.2-8.3c-1-3.5-3.2-6.8-4.9-10.1c1.1-3.6,2.6-6.2,2.1-8.3
				c-2.6-8.7,2.2-9.1,8.4-7.8c16.3,3.4,31.5,9.5,44.7,19.7c3.2,2.5,4.1,8,6.4,12.8c-8,2.4-13.2,4.8-7.5,12.4
				C281.13,212.51,279.13,216.51,277.63,217.21z M280.93,280.31c-0.4-3.4-0.8-5.5-1.4-8.2c3.9,0.2,7.5,0.4,11.1,0.7
				c0.2,0.9,0.5,1.8,0.7,2.7C287.93,277.11,284.43,278.71,280.93,280.31z"/>
			<path class="st0" d="M261.83,49.71c0,0.1,0,0.3,0,0.4C262.93,50.31,263.23,50.41,261.83,49.71z M180.53,36.11
				c0.1,0.2,0.2,0.4,0.2,0.7C181.23,36.51,181.23,36.31,180.53,36.11z M172.63,37.41L172.63,37.41
				C172.13,37.41,172.23,37.41,172.63,37.41z M104.93,55.71c0.1,0.2,0.2,0.5,0.3,0.7C105.63,56.11,105.63,55.81,104.93,55.71z
				 M30.83,72.61c-0.4,0.3-0.3,0.4,0.1,0.5C30.93,72.91,30.83,72.71,30.83,72.61z"/>
		</g>
	</g>
	<g>
		<g>
			<g>
				<path class="st1" d="M426.33,174.21h-34.8v22.5h38.9v17.5h-60.2v-94.5h58.2v17.5h-36.8v19.7h34.8v17.3H426.33z"/>
				<path class="st1" d="M444.23,114.61h21.4v99.5h-21.4V114.61z"/>
				<path class="st1" d="M504.83,126.51c0,5.9-4.4,10.7-11.5,10.7c-6.8,0-11.1-4.7-11.1-10.7c0-6.1,4.4-10.7,11.3-10.7
					C500.43,115.81,504.73,120.31,504.83,126.51z M482.83,214.11v-68.6h21.4v68.6H482.83z"/>
				<path class="st1" d="M515.73,201.91l21.6-27c3.9-4.6,7-8,10.9-12.1v-0.3h-30.1v-17h56.2v12.8l-20.7,26
					c-3.7,4.4-7.3,8.7-11.2,12.6v0.3h33v16.9h-59.6v-12.2H515.73z"/>
				<path class="st1" d="M626.03,214.11l-1.3-6.8h-0.5c-4.5,5.5-11.5,8.4-19.6,8.4c-14,0-22.2-10-22.2-21c0-17.9,16-26.4,40.3-26.3
					v-0.9c0-3.6-2-8.9-12.6-8.8c-7,0-14.3,2.4-18.9,5.1l-3.9-13.7c4.8-2.7,14.1-6.2,26.7-6.2c22.8,0,30.1,13.5,30.1,29.6v24
					c0,6.5,0.3,12.8,1.1,16.6H626.03z M623.43,181.71c-11.2-0.1-19.9,2.6-19.9,10.8c0,5.5,3.6,8.2,8.5,8.2c5.2,0,9.6-3.5,11-7.9
					c0.3-1.1,0.4-2.4,0.4-3.6V181.71z"/>
				<path class="st1" d="M660.43,214.11c0.3-4.5,0.6-12.7,0.6-20.5v-79h21.3v39.1h0.3c4.1-5.9,11.2-9.7,20.7-9.7
					c16.5,0,28.5,13.6,28.3,34.6c0,24.7-15.7,37.1-31.4,37.1c-8,0-15.7-3-20.5-11.1h-0.3l-0.9,9.6h-18.1V214.11z M682.33,185.01
					c0,1.4,0.1,2.6,0.4,3.7c1.4,5.7,6.3,10.2,12.6,10.2c9.1,0,14.7-7.1,14.7-19.4c0-10.7-4.8-19.1-14.7-19.1
					c-5.9,0-11.2,4.3-12.5,10.5c-0.3,1.2-0.4,2.6-0.4,3.9v10.2H682.33z"/>
				<path class="st1" d="M761.33,186.71c0.6,8.9,9.4,13.1,19.3,13.1c7.2,0,13.1-1,18.9-2.9l2.9,14.4c-7.1,2.9-15.7,4.3-24.9,4.3
					c-23.2,0-36.6-13.5-36.6-34.9c0-17.4,10.9-36.7,34.6-36.7c22.2,0,30.6,17.3,30.6,34.3c0,3.7-0.4,6.9-0.8,8.4L761.33,186.71
					L761.33,186.71z M786.33,172.11c0-5.1-2.3-13.9-12-13.9c-9,0-12.7,8.2-13.3,13.9H786.33z"/>
				<path class="st1" d="M842.63,125.91v19.6h15.4v15.7h-15.4v24.9c0,8.3,2.1,12.1,8.4,12.1c2.8,0,4.9-0.3,6.3-0.6l0.2,16.2
					c-2.8,1-7.8,1.8-13.8,1.8c-6.9,0-12.6-2.4-16.1-6c-4-4.1-5.9-10.6-5.9-20.3v-28.1h-9.1v-15.7h9.1v-14.7L842.63,125.91z"/>
				<path class="st1" d="M870.33,114.61h21.4v39.2h0.3c2.2-3,5-5.3,8.4-7.1c3.2-1.7,7.1-2.7,11.1-2.7c13.6,0,24,9.4,24,30.1v40
					h-21.4v-37.7c0-9-3.1-15.2-11-15.2c-5.7,0-9.2,3.6-10.7,7.5c-0.5,1.3-0.7,3.1-0.7,4.7v40.7h-21.4L870.33,114.61L870.33,114.61z"
					/>
			</g>
		</g>
		<g>
			<g>
				<path class="st2" d="M392.33,255.71c0,1.3-0.8,1.7-1.3,1.7c-0.8,0-1.6-0.4-2.4-0.7c-1.5-0.6-3-1-5.5-1c-3.8,0-7.6,1.3-7.6,4.9
					c0,3,4,4.2,8.2,6.2c5.2,2.4,10.7,4.6,10.7,9.9c0,8-7.6,8.3-11.6,8.3c-2.7,0-6.4-1.2-8.5-2.1c-1.1-0.5-2.1-1.3-2.1-2.4
					c0-1.3,0.7-1.8,1.4-1.8c0.8,0,1.3,0.4,2.3,0.9c1.7,0.9,4.1,1.6,6.8,1.6s7.8-0.3,7.8-4.4c0-2.9-4.2-4.7-8.4-6.4
					c-5.3-2.1-10.5-3.8-10.5-9.6c0-5.7,6.4-8.8,11.4-8.8c2.9,0,5.8,0.8,7.6,1.7C391.73,254.11,392.33,254.71,392.33,255.71z"/>
				<path class="st2" d="M399.13,269.11c0-10.4,9.2-17.2,17.1-17.2c7.2,0,11.4,2.2,11.4,4c0,1.2-0.6,1.7-1.7,1.7
					c-2,0-1.8-1.9-9.6-1.9c-5.7,0-13.3,5.4-13.3,13.4c0,8.7,7.6,12.1,13.3,12.1c7.8,0,7.6-1.9,9.6-1.9c1.2,0,1.7,0.6,1.7,1.7
					c0,1.8-4.1,4-11.4,4C408.83,285.01,399.13,280.71,399.13,269.11z"/>
				<path class="st2" d="M459.73,285.01c-1.4,0-1.9-1-1.9-2.2c0-1.4,0.2-3.4,0.2-5.5l-0.2-6.3c-0.4,0.4-1.2,0.6-2.4,0.6
					c-1.4,0-6.7,0.1-9.9,0.1c-1.3,0-4.5-0.1-6.8-0.1c0.1,5.6,0.3,10.4,0.3,11.3c0,1.3-0.8,2.2-1.7,2.2c-1.3,0-2.1-0.9-2.1-2.2
					c0-0.6-0.4-14.7-0.5-23.1c-0.1-3,0-5.2,0-5.5c0-1.4,0.7-2.3,1.9-2.3c1.4,0,1.9,1,1.9,2.2c0,1.4-0.1,3.4-0.1,5.5
					c0,2.6,0.1,5.5,0.2,8.3c2.1,0,5,0.1,6.9,0.1c3.6,0,10.8-0.2,10.8-0.2c0.7,0,1.2,0.2,1.4,0.5c-0.2-6.7-0.4-13.1-0.4-14.1
					c0-1.3,0.8-2.2,1.7-2.2c1.3,0,2.1,0.9,2.1,2.2c0,0.6,0.5,14.7,0.6,23.1c0.1,3-0.1,5.2-0.1,5.5
					C461.63,284.21,461.03,285.01,459.73,285.01z"/>
				<path class="st2" d="M503.03,268.51c0,10.9-10.2,16.6-17.2,16.6c-6.9,0-17-5.1-17-16.6c0-8.7,7.9-16.6,17.1-16.6
					C495.13,251.81,503.03,259.81,503.03,268.51z M472.73,268.51c0,9,8,12.7,13.3,12.7c5.2,0,13.1-3.9,13.1-12.7
					c0-6.7-6.6-12.8-13.2-12.8C479.23,255.71,472.73,261.91,472.73,268.51z"/>
				<path class="st2" d="M542.33,268.51c0,10.9-10.2,16.6-17.2,16.6c-6.9,0-17-5.1-17-16.6c0-8.7,7.9-16.6,17.1-16.6
					C534.43,251.81,542.33,259.81,542.33,268.51z M512.03,268.51c0,9,8,12.7,13.3,12.7c5.2,0,13.1-3.9,13.1-12.7
					c0-6.7-6.6-12.8-13.2-12.8C518.53,255.71,512.03,261.91,512.03,268.51z"/>
				<path class="st2" d="M549.23,254.01c0-1.2,0.6-2.2,2-2.2c1.1,0,1.9,0.8,1.9,2.2c0,6.9,0.3,13.9,0.3,18.9c0,1.9-0.1,4-0.1,4.8
					c0,1.7-0.1,3.2,3.7,3.2c4.2,0,12-0.1,12-0.1c0.9,0,2.2,0.9,2.2,2c0,1.3-0.9,1.9-2.1,1.9h-13.6c-6.2,0-6.1-2.9-6.1-5.6v-6.3
					C549.53,266.61,549.23,260.51,549.23,254.01z"/>
			</g>
			<g>
				<path class="st2" d="M731.93,253.11c0-1.1,0.6-2.2,2-2.2c1,0,1.9,0.8,1.9,2.2c0,6.8,0.3,13.6,0.3,18.5c0,1.9-0.1,4-0.1,4.7
					c0,1.7-0.1,3.1,3.6,3.1c4.1,0,11.8-0.1,11.8-0.1c0.8,0,2.2,0.8,2.2,2c0,1.3-0.8,1.9-2.1,1.9h-13.3c-6,0-5.9-2.8-5.9-5.5v-6.1
					C732.23,265.51,731.93,259.41,731.93,253.11z"/>
				<path class="st2" d="M789.03,267.31c0,10.7-10,16.2-16.9,16.2c-6.8,0-16.7-5-16.7-16.2c0-8.5,7.7-16.3,16.8-16.3
					S789.03,258.81,789.03,267.31z M759.33,267.31c0,8.9,7.8,12.4,13,12.4c5.1,0,12.8-3.9,12.8-12.4c0-6.6-6.5-12.5-12.9-12.5
					C765.73,254.71,759.33,260.81,759.33,267.31z"/>
				<path class="st2" d="M822.03,283.51c-0.9,0-1.4-0.4-1.9-0.9c-0.9-1.1-2-2.6-3.3-4.1c-4.3-5-12.8-15.4-17.2-20.7v0.9
					c0.2,8.8,0.6,21.2,0.6,22.7c0,1.3-0.8,2.2-1.7,2.2c-1.3,0-2.1-0.8-2.1-2.2c0-0.6-0.4-14.4-0.5-22.6c-0.1-2.9,0-5.1,0-5.4
					c0-1.4,0.7-2.3,1.9-2.3c0.8,0,1.2,0.3,1.5,0.8c1.6,2.4,15,18.7,20.2,24.3l0.7,0.8v-0.9c-0.2-8.8-0.6-21.2-0.6-22.7
					c0-1.3,0.8-2.2,1.7-2.2c1.3,0,2.1,0.8,2.1,2.2c0,0.6,0.4,14.4,0.5,22.6c0.1,2.9,0,5.1,0,5.4
					C823.93,282.61,823.23,283.51,822.03,283.51z"/>
				<path class="st2" d="M836.83,251.21h6.5c12.2,0,17.3,6.9,17.3,16c0,10.7-8,16.2-18.4,16.2c-7.5,0-9.2-2-9.2-5.6
					c0-6.6-0.6-13.2-0.6-20.5C832.53,252.61,833.43,251.21,836.83,251.21z M836.13,260.71c0,5,0.7,10.3,0.7,15.8
					c0,2.1,0.9,3.2,5.5,3.2c9.6,0,14.6-4.6,14.6-12.3c0-8.2-4.6-12.4-13.6-12.4h-5.1c-0.8,0-2.1,0.4-2.1,1.8V260.71z"/>
				<path class="st2" d="M899.23,267.31c0,10.7-10,16.2-16.9,16.2c-6.8,0-16.7-5-16.7-16.2c0-8.5,7.7-16.3,16.8-16.3
					S899.23,258.81,899.23,267.31z M869.53,267.31c0,8.9,7.8,12.4,13,12.4c5.1,0,12.8-3.9,12.8-12.4c0-6.6-6.5-12.5-12.9-12.5
					C875.93,254.71,869.53,260.81,869.53,267.31z"/>
				<path class="st2" d="M932.23,283.51c-0.9,0-1.4-0.4-1.9-0.9c-0.9-1.1-2-2.6-3.3-4.1c-4.3-5-12.8-15.4-17.2-20.7v0.9
					c0.2,8.8,0.6,21.2,0.6,22.7c0,1.3-0.8,2.2-1.7,2.2c-1.3,0-2.1-0.8-2.1-2.2c0-0.6-0.4-14.4-0.5-22.6c-0.1-2.9,0-5.1,0-5.4
					c0-1.4,0.7-2.3,1.9-2.3c0.8,0,1.2,0.3,1.5,0.8c1.6,2.4,15,18.7,20.2,24.3l0.7,0.8v-0.9c-0.2-8.8-0.6-21.2-0.6-22.7
					c0-1.3,0.8-2.2,1.7-2.2c1.3,0,2.1,0.8,2.1,2.2c0,0.6,0.4,14.4,0.5,22.6c0.1,2.9,0,5.1,0,5.4
					C934.13,282.61,933.43,283.51,932.23,283.51z"/>
			</g>
			<g>
				<path class="st1" d="M658.23,268.31c-1.5,1.8-2.9,3.1-4.2,3.8c-1.1,0.6-2.2,0.9-3.3,0.9c-1.9,0-3.5-0.8-4.8-2.5
					c-1.2,4.7-3.7,8.6-7.5,11.8c-3.7,3.2-8,4.8-12.6,4.8c-2.5,0-4.6-0.7-6.1-2.2s-2.3-3.5-2.3-6c0-4.8,2.2-9,6.6-12.9
					c4.2-3.6,8.7-5.4,13.6-5.4c4,0,6.6,1.9,8.1,5.6c1.4,3.7,3.1,5.6,4.9,5.6c1,0,2.1-0.3,3.2-0.9c1.1-0.6,2.4-1.8,3.8-3.5
					L658.23,268.31z M640.23,265.21c0-1.1-0.2-2-0.6-2.6s-1.2-0.9-2.3-0.9c-3.1,0-6.3,2.7-9.5,8.2c-2.9,5-4.4,9.2-4.4,12.6
					c0,1.1,0.2,1.9,0.6,2.5c0.4,0.6,1.2,0.9,2.3,0.9c3.1,0,6.3-2.7,9.5-8.2C638.83,272.81,640.23,268.61,640.23,265.21z"/>
				<path class="st1" d="M665.73,263.21c-3.6,6.4-7.1,12.8-10.7,19.2c-4.7,7.7-9.3,13.4-14,17.3c-6.1,5-12.8,7.5-20.2,7.5
					c-3.4,0-6.3-0.6-8.7-1.9c-3-1.6-4.5-4-4.5-7.1c0-2.6,1.2-4.7,3.5-6.3c2-1.3,4.4-2,7.2-2l2.6,0.3v0.8c-2.1,0-3.8,0.7-5.2,2.2
					c-1.4,1.4-2.1,3.2-2.1,5.4c0,2.5,0.7,4.4,2.2,5.7s3.5,2,6,2c4.9,0,9.9-2.8,15.1-8.5c3.8-4.1,7.9-10.1,12.4-18
					c3.1-5.5,6.2-11,9.3-16.5h-6.4l0.8-1.5h6.7c2.4-4.1,4.5-7.6,6.6-10.3c3-4,6-7,9.1-9.3c3.7-2.7,7.5-4,11.2-4
					c1.9,0,3.7,0.5,5.3,1.4c1.6,1,2.4,2.4,2.4,4.3c0,1.7-0.6,2.9-1.8,3.8c-1.2,0.9-2.6,1.3-4.3,1.3h-1.4c0.4-0.9,0.8-1.8,1-2.9
					c0.3-1.1,0.4-2,0.4-2.9c0-1-0.2-1.9-0.7-2.7s-1.2-1.2-2.2-1.2c-2.1,0-4.5,1.5-7.2,4.5c-2.1,2.3-4.3,5.5-6.8,9.6
					c-0.7,1-2.2,3.8-4.7,8.3h17.7l-0.9,1.5L665.73,263.21L665.73,263.21z"/>
			</g>
		</g>
	</g>
</g>
</svg>
