<?xml version="1.0" encoding="UTF-8"?>
<svg id="Layer_1" data-name="Layer 1" xmlns="http://www.w3.org/2000/svg" viewBox="0 0 886.36 345.45">
  <defs>
    <style>
      .cls-1 {
        fill: #e018e0;
      }

      .cls-2 {
        fill: #0b1a27;
      }

      .cls-3 {
        fill: #ff379e;
      }

      .cls-4 {
        fill: #8ec8ee;
      }

      .cls-5 {
        fill: #061665;
      }

      .cls-6 {
        fill: #00ffd2;
      }
    </style>
  </defs>
  <g>
    <rect class="cls-5" x="7.39" y="8.56" width="327.86" height="327.18"/>
    <g>
      <g>
        <path class="cls-3" d="M37.34,49.9l68.16,109.81,68.13-109.81H37.34h0Z"/>
        <path class="cls-4" d="M37.34,293.03h136.29s-68.13-109.81-68.13-109.81l-68.16,109.81h0Z"/>
      </g>
      <path class="cls-6" d="M247.49,159.72h54.78s0-109.81,0-109.81h-54.78c-72.02,1.23-71.98,108.6,0,109.81Z"/>
      <path class="cls-1" d="M251.29,294.4h-54.78v-109.81h54.78c72.02,1.23,71.98,108.6,0,109.81Z"/>
    </g>
  </g>
  <g>
    <g>
      <rect class="cls-2" x="718.86" y="32.51" width="19.15" height="17.98"/>
      <rect class="cls-2" x="860.61" y="78.41" width="18.37" height="19.38"/>
      <rect class="cls-2" x="490.64" y="8.56" width="18.28" height="17.98"/>
      <g>
        <path class="cls-2" d="M462.01,8.56l-25.6,67.74h-.54l-25.92-67.74h-20.34l35.33,88.79h21.65l35.33-88.79h-19.9Z"/>
        <path class="cls-2" d="M490.76,31.58v65.77h18.16V31.58h-18.16Z"/>
        <path class="cls-2" d="M568.52,73.01c-1.68,6.58-6.38,9.87-14.11,9.87-4.82,0-8.71-1.61-11.7-4.83-2.98-3.22-4.48-7.75-4.48-13.59s1.48-10.38,4.43-13.59c2.96-3.22,6.87-4.82,11.76-4.82,7.22,0,11.81,2.96,13.78,8.88h18.27c-1.46-7.67-4.99-13.7-10.61-18.08-5.61-4.38-12.76-6.58-21.43-6.58-6.85,0-12.87,1.41-18.04,4.22-5.18,2.81-9.19,6.78-12.03,11.89-2.85,5.12-4.26,11.14-4.26,18.08s1.43,12.98,4.32,18.08c2.88,5.12,6.89,9.08,12.03,11.89,5.14,2.82,11.14,4.22,17.99,4.22,9.04,0,16.37-2.26,21.98-6.8,5.62-4.53,9.08-10.81,10.39-18.85h-18.26Z"/>
        <path class="cls-2" d="M618.93,83.1v-37.27h14.98v-14.24h-15.19V11.84h-17.72v19.74h-11.49v14.24h11.26v37.06c0,4.9,1.3,8.53,3.89,10.91,2.59,2.37,6.21,3.56,10.88,3.56h19.9v-14.25h-16.51Z"/>
        <path class="cls-2" d="M707.83,46.27c-2.84-5.12-6.89-9.06-12.14-11.84-5.25-2.77-11.45-4.17-18.59-4.17s-13.47,1.39-18.75,4.17c-5.28,2.77-9.39,6.72-12.3,11.84-2.92,5.12-4.38,11.14-4.38,18.08s1.46,13.09,4.38,18.19c2.91,5.12,7.02,9.08,12.3,11.89,5.28,2.82,11.5,4.22,18.65,4.22s13.34-1.38,18.59-4.17c5.25-2.77,9.31-6.74,12.19-11.89,2.89-5.15,4.32-11.2,4.32-18.14s-1.42-13.08-4.26-18.19ZM689.57,77.89c-2.92,3.33-7.11,4.99-12.58,4.99s-9.79-1.66-12.74-4.99c-2.95-3.33-4.43-7.84-4.43-13.54s1.48-10.09,4.43-13.38c2.95-3.29,7.2-4.93,12.74-4.93s9.66,1.63,12.58,4.87c2.91,3.25,4.37,7.73,4.37,13.43s-1.46,10.21-4.37,13.54Z"/>
        <path class="cls-2" d="M763.72,30.81c-4.81,0-9.12,1.15-12.9,3.45-3.8,2.3-6.53,5.72-8.21,10.25h-4.59v5.49h-9.4v47.35h17.83v-33.21c0-5.26,1.33-9.5,3.99-12.72,2.66-3.22,6.83-4.83,12.52-4.83h6.34v-15.78h-5.57Z"/>
        <path class="cls-2" d="M779.46,31.58v65.77h18.16V31.58h-18.16Z"/>
        <path class="cls-2" d="M863.56,36.9c-5.18-4.42-12.61-6.63-22.31-6.63-8.83,0-15.9,1.86-21.22,5.59-5.32,3.72-8.71,9.2-10.17,16.44h18.04c1.53-5.12,5.98-7.67,13.34-7.67,8.46,0,12.69,3.54,12.69,10.63v2.52h-18.81c-8.46,0-14.95,1.75-19.47,5.27-4.53,3.51-6.78,8.51-6.78,15.01s2.18,11.18,6.56,14.91c4.37,3.72,10.42,5.59,18.15,5.59,5.69,0,10.42-1.04,14.22-3.12,3.79-2.09,6.82-5.03,9.07-8.83h4.6v-7.43h9.84v-23.15c0-8.33-2.59-14.7-7.76-19.12ZM853.94,70.82c0,3.87-1.66,7.16-4.98,9.86-3.32,2.7-7.53,4.06-12.63,4.06-3.14,0-5.62-.66-7.44-1.97-1.82-1.32-2.73-3.18-2.73-5.59,0-4.89,3.28-7.35,9.85-7.35h17.93v.99Z"/>
        <rect class="cls-2" x="779.46" y="8.56" width="18.16" height="17.98"/>
      </g>
    </g>
    <g>
      <g>
        <path class="cls-2" d="M453.65,199.89c-3.92,2.77-8.89,4.16-14.89,4.16-8.62,0-15.44-2.75-20.43-8.27-5-5.51-7.51-13.13-7.51-22.86s2.5-17.43,7.51-22.91c4.99-5.47,11.81-8.22,20.43-8.22,6,0,10.96,1.4,14.89,4.17,3.92,2.77,6.31,6.63,7.16,11.57h20.31c-1.61-10.26-6.21-18.34-13.79-24.24-7.58-5.9-17.11-8.85-28.57-8.85-9.54,0-17.87,1.99-25,5.97-7.12,3.97-12.63,9.59-16.57,16.83-3.92,7.25-5.89,15.82-5.89,25.69s1.96,18.32,5.89,25.57c3.93,7.26,9.45,12.87,16.57,16.84,7.13,3.97,15.46,5.96,25,5.96,11.47,0,20.99-2.93,28.57-8.8,7.58-5.86,12.18-13.95,13.79-24.3h-20.31c-.85,5.02-3.24,8.91-7.16,11.69Z"/>
        <path class="cls-2" d="M556.4,165.64c-3-5.41-7.28-9.57-12.82-12.5-5.53-2.93-12.08-4.4-19.62-4.4s-14.22,1.47-19.81,4.4c-5.57,2.94-9.9,7.1-12.98,12.5-3.08,5.4-4.62,11.76-4.62,19.09s1.53,13.81,4.62,19.21c3.08,5.41,7.41,9.58,12.98,12.56,5.58,2.96,12.14,4.46,19.68,4.46s14.09-1.46,19.63-4.4c5.54-2.94,9.84-7.12,12.88-12.56,3.03-5.43,4.56-11.82,4.56-19.15s-1.51-13.81-4.5-19.21ZM537.11,199.02c-3.08,3.51-7.5,5.27-13.28,5.27s-10.33-1.76-13.45-5.27c-3.12-3.51-4.67-8.27-4.67-14.29s1.55-10.65,4.67-14.12c3.12-3.48,7.6-5.22,13.45-5.22s10.2,1.72,13.28,5.16c3.08,3.43,4.62,8.15,4.62,14.17s-1.54,10.78-4.62,14.29Z"/>
        <path class="cls-2" d="M572.67,122.36v97.2h19.16v-97.2h-19.16Z"/>
        <path class="cls-2" d="M607.77,122.36v97.2h19.16v-97.2h-19.16Z"/>
        <path class="cls-2" d="M709.59,183.35c0-10.72-3.07-19.17-9.23-25.34-6.16-6.17-14.66-9.26-25.51-9.26-7.39,0-13.8,1.47-19.22,4.4-5.43,2.94-9.61,7.08-12.53,12.44-2.93,5.36-4.39,11.7-4.39,19.04s1.5,13.82,4.5,19.26c3,5.43,7.25,9.64,12.76,12.62,5.51,2.96,12.03,4.46,19.57,4.46,9.08,0,16.6-2.11,22.57-6.31,5.97-4.21,9.72-10.01,11.26-17.42h-19.16c-2,5.63-6.93,8.45-14.78,8.45-5.24,0-9.41-1.35-12.53-4.06-3.12-2.7-5.06-6.63-5.83-11.8h52.52v-6.48ZM657.53,177.09c2.08-8.8,7.88-13.19,17.43-13.19s14.96,4.4,16.28,13.19h-33.71Z"/>
        <path class="cls-2" d="M780.94,161.47h-4.85c-2.46-4.08-5.77-7.23-9.92-9.42-4.16-2.2-9.13-3.31-14.9-3.31-10.39,0-18.57,3.2-24.54,9.6-5.96,6.41-8.95,15.01-8.95,25.81,0,7.25,1.33,13.52,3.99,18.8,2.65,5.29,6.39,9.38,11.19,12.27,4.81,2.89,10.49,4.33,17.03,4.33,10.16,0,17.39-3.77,21.7-11.33h.58v9.25c0,5.17-1.6,9.13-4.79,11.86-3.2,2.74-7.8,4.1-13.8,4.1-8.85,0-14.2-2.85-16.04-8.56h-20.32c1.22,7.49,5.1,13.33,11.6,17.53,6.5,4.21,14.95,6.31,25.34,6.31,11.69,0,20.72-2.7,27.07-8.09,6.35-5.41,9.52-13.04,9.52-22.91v-48.61h-9.92v-7.64ZM771.7,186.46c0,5.09-1.52,9.11-4.56,12.04-3.04,2.94-7.17,4.4-12.41,4.4-5.62,0-9.99-1.61-13.11-4.85-3.12-3.24-4.67-7.83-4.67-13.77s1.55-10.56,4.67-13.89c3.12-3.32,7.49-4.98,13.11-4.98,5.23,0,9.36,1.45,12.41,4.34,3.04,2.9,4.56,6.85,4.56,11.86v4.85Z"/>
        <path class="cls-2" d="M878.15,183.35c0-10.72-3.08-19.17-9.24-25.34-6.16-6.17-14.66-9.26-25.51-9.26-7.39,0-13.8,1.47-19.22,4.4-5.43,2.94-9.6,7.08-12.53,12.44-2.93,5.36-4.39,11.7-4.39,19.04s1.5,13.82,4.5,19.26c3,5.43,7.26,9.64,12.76,12.62,5.51,2.96,12.03,4.46,19.57,4.46,9.08,0,16.6-2.11,22.57-6.31,5.96-4.21,9.71-10.01,11.25-17.42h-19.16c-2,5.63-6.93,8.45-14.77,8.45-5.23,0-9.41-1.35-12.53-4.06-3.12-2.7-5.06-6.63-5.83-11.8h52.53v-6.48ZM826.08,177.09c2.08-8.8,7.88-13.19,17.43-13.19s14.97,4.4,16.28,13.19h-33.71Z"/>
      </g>
      <rect class="cls-2" x="780.94" y="151.45" width="18.93" height="18.98"/>
    </g>
  </g>
</svg>
