<?xml version="1.0" encoding="UTF-8"?>
<svg xmlns="http://www.w3.org/2000/svg" version="1.1" viewBox="0 0 845.88 435.95">
  <defs>
    <style>
      .st0 {
        fill: #22315b;
      }
    </style>
  </defs>
  <g>
    <g>
      <path class="st0" d="M18.6,47.46c-.7-2.5-1.7-4.8-3.2-7-1.2-1.7-2.9-3-4.9-3.7-2.5-.8-5-1.2-7.6-1.1H0v-2.2h60.8v2.2h-5.1c-3.5-.2-7,.5-10.1,2-2.2,1.5-3.5,4.2-3.2,6.8,0,1,0,1.9.2,2.9.2,1.1.4,2.2.7,3.3.3,1.2.6,2.4.9,3.7l23.7,77.9c1.3,4.4,2.6,8.9,3.8,13.4s2.3,9.1,3.3,13.7,2,9.4,2.9,14.2c.9-4.3,2.2-9.5,3.7-15.6s3.2-12.7,5-19.8l26.3-103.3h9.3l32.3,95.8c2.1,6,3.9,11.9,5.6,17.6s3.2,10.9,4.5,15.7c1.3,4.8,2.3,8.9,3.1,12.3l2.2-8.1c.5-2,1.1-4.3,1.8-6.8l2.7-10.6,24.5-92.9c.6-2.2,1.2-4.4,1.5-6.6.3-1.7.4-3.4.4-5.1,0-4-1.2-6.7-3.6-8.3-3.5-1.8-7.5-2.6-11.4-2.3h-5v-2.2h42.8v2.2h-4.3c-2.7,0-5.3.4-7.7,1.5-2.2,1.2-4,3-5.2,5.3-1.7,3.3-3,6.8-3.9,10.4l-36.6,138.4h-13.3L108.8,59.16l-32.7,132h-13.7L18.6,47.26v.2Z"/>
      <path class="st0" d="M234.6,191.36v-2.2h2.9c3.6.1,7.2-.5,10.6-1.8,2.6-1.1,4.7-3.1,5.9-5.6,1.3-3.1,1.9-6.4,1.8-9.7v-79.8c.1-3.4-.5-6.8-1.8-10-1.2-2.5-3.3-4.5-5.8-5.5-3.4-1.3-7-1.9-10.6-1.8h-.7v-2.2h39.6v98.1c-.2,3.6.5,7.2,1.8,10.6,1.1,2.6,3.2,4.7,5.8,5.8,3.4,1.3,6.9,1.9,10.5,1.8h2.9v2.2h-62.9v.1ZM265,51.66c-2.6,0-5.1-.9-7-2.8-1.8-1.8-2.8-5-2.8-9.6s.9-8,2.8-9.7c1.9-1.8,4.4-2.7,7-2.7s5,.9,6.9,2.6c1.9,1.8,2.9,5,2.9,9.7s-1,7.8-2.9,9.6c-1.8,1.8-4.3,2.8-6.9,2.8"/>
      <path class="st0" d="M303.2,375.46v-2.2h2.9c3.6.1,7.2-.5,10.6-1.8,2.5-1.1,4.6-3,5.7-5.5,1.3-3.1,1.9-6.4,1.8-9.7V40.26c.1-3.4-.5-6.8-1.8-9.9-1.2-2.5-3.2-4.5-5.7-5.5-3.4-1.3-7-1.9-10.6-1.7h-2.9v-2.2h41.8v334.2c-.2,3.6.5,7.2,1.8,10.6,1.1,2.6,3.2,4.6,5.7,5.7,3.4,1.3,7,1.9,10.6,1.8h2.9v2.2h-62.8Z"/>
      <path class="st0" d="M371.8,375.46v-2.2h2.9c3.6.1,7.2-.5,10.6-1.8,2.5-1.1,4.6-3,5.7-5.5,1.3-3.1,1.9-6.4,1.8-9.7V40.26c.1-3.4-.5-6.8-1.8-9.9-1.2-2.5-3.3-4.4-5.8-5.4-3.4-1.3-7-2-10.6-1.8h-2.9v-2.2h41.8v334.2c-.1,3.6.5,7.2,1.8,10.6,1.1,2.6,3.2,4.6,5.7,5.7,3.4,1.3,7,1.9,10.6,1.8h2.9v2.2h-62.8.1Z"/>
      <path class="st0" d="M442.6,191.36v-2.2h2.9c3.6.1,7.2-.5,10.6-1.8,2.5-1.1,4.6-3,5.8-5.5,1.3-3.1,1.9-6.4,1.8-9.7v-79.9c.1-3.4-.5-6.8-1.8-10-1.2-2.5-3.3-4.5-5.8-5.5-3.4-1.3-7-1.9-10.6-1.8h-.7v-2.2h39.6v98.1c-.2,3.6.5,7.2,1.8,10.6,1.1,2.6,3.2,4.7,5.8,5.8,3.4,1.3,6.9,1.9,10.5,1.8h2.9v2.2h-62.8v.1ZM472.8,51.66c-2.6,0-5.1-.9-7-2.8-1.8-1.8-2.8-5-2.8-9.6s.9-8,2.8-9.7c1.9-1.8,4.4-2.7,7-2.7s5,.9,6.9,2.6c1.9,1.8,2.9,5,2.9,9.7s-1,7.8-2.9,9.6c-1.8,1.8-4.3,2.8-6.9,2.8"/>
      <path class="st0" d="M555.8,193.56c-11.2,0-20.1-2.9-26.6-8.7-6.6-5.8-9.8-13.8-9.9-24,0-11.3,4.2-19.8,12.5-25.4s21-8.7,37.9-9.3l18.4-.7v-16.6c.1-6.8-.3-13.6-1.3-20.3-.5-4.5-2.5-8.6-5.7-11.8-3-2.6-7.4-3.9-13.5-3.9-8.6,0-14.1,2.7-16.5,8s-3.6,13.6-3.6,25c-6.2,0-10.9-1-14.1-3.1-3.3-2.3-5.1-6.2-4.8-10.2-.2-4.8,1.8-9.5,5.4-12.7,4.2-3.4,9.2-5.8,14.5-7,6.5-1.5,13.2-2.2,19.9-2.2,13.6,0,23.7,2.9,30.4,8.6s10.1,15.6,10.1,29.6v66c-.1,2.9.3,5.7,1.3,8.4.9,2,2.5,3.5,4.4,4.3,2.5,1,5.2,1.4,8,1.3h.7v2.2h-33.5v-23h-.5c-1.2,5.3-3.6,10.3-7.1,14.5-3.1,3.6-7.1,6.5-11.6,8.2-4.8,1.8-9.8,2.7-14.9,2.7M560.2,190.46c5.1,0,10.2-1.4,14.5-4.3,4.2-2.8,7.6-6.7,9.8-11.3,2.4-4.7,3.6-10,3.6-15.3v-31.7l-14.2.7c-12.5.6-21.2,3.4-26,8.6s-7.2,13.9-7.2,26.1c-.1,5.1.6,10.1,2.2,14.9,1.1,3.7,3.4,6.9,6.5,9.2,3.2,2.1,7,3.2,10.8,3.1"/>
      <path class="st0" d="M638.9,191.36v-2.2h1.8c3.6.1,7.3-.5,10.6-1.8,2.5-1.1,4.6-3,5.7-5.5,1.3-3.1,1.9-6.4,1.8-9.7v-79.9c.1-3.4-.5-6.8-1.8-10-1.2-2.5-3.2-4.5-5.7-5.5-3.4-1.3-7-1.9-10.6-1.8h-.7v-2.2h39.4v21h.4c1.5-5.5,4.4-10.6,8.3-14.7,3.3-3.2,7.2-5.5,11.6-6.7,4.2-1.2,8.6-1.8,13-1.8,7.4-.1,14.7,1.8,21.1,5.6,6.3,3.7,10.9,10.8,13.8,21.3h.5c1.9-8,4.6-13.9,8.1-17.7,3.1-3.6,7.1-6.1,11.7-7.4,4.1-1.2,8.4-1.8,12.6-1.8,12.7,0,22.1,3.7,28.2,10.9s9.2,18.3,9.1,33v56.4c-.2,3.6.5,7.2,1.8,10.6,1.1,2.6,3.2,4.7,5.8,5.8,3.4,1.3,6.9,1.9,10.5,1.8h.6v2.2h-39.5v-81.1c0-12.2-1.7-21.2-5.1-26.8-3.4-5.6-8.8-8.4-16.4-8.4-5.1-.1-10.2,1.4-14.4,4.3-4.2,3.2-7.3,7.5-9,12.5-2.2,6.4-3.2,13.1-3,19.9v59.3c-.2,3.6.5,7.2,1.8,10.6,1.1,2.6,3.3,4.7,5.9,5.8,3.4,1.3,6.9,1.9,10.5,1.8h.7v2.2h-39.6v-81.1c0-12.2-1.7-21.2-5.2-26.8-3.5-5.6-9.1-8.4-16.9-8.4-5.3-.2-10.5,1.4-14.8,4.4-4.3,3.4-7.4,8-9,13.3-2.2,7.2-3.2,14.6-3,22.1v56.2c-.2,3.6.5,7.2,1.8,10.6,1.1,2.6,3.3,4.7,5.9,5.8,3.4,1.3,6.9,1.9,10.5,1.8h.6v2.2h-59.5l.1-.1Z"/>
      <path class="st0" d="M121.9,374.96c-15.2,0-27.8-3.4-38-10.2-10.3-6.9-18.3-16.8-22.9-28.3-5.3-13.4-7.9-27.8-7.6-42.2-.3-14.6,2.3-29.1,7.7-42.7,4.8-11.8,13-21.8,23.7-28.6,10.5-6.9,23.8-10.3,39.9-10.3,8.2-.2,16.4,1,24.2,3.5,5.7,1.8,10.9,5,15.1,9.3,3.3,3.4,5.1,8,5.1,12.7.3,4.4-1.8,8.6-5.4,11.1-4.1,2.5-8.9,3.8-13.7,3.6.2-7.4-.7-14.9-2.9-22-1.5-5-4.8-9.3-9.3-12.1-4.9-2.7-10.5-4-16.1-3.8-10.3,0-18.7,3-25.2,8.8-6.5,5.9-11.2,14.6-14.2,26.2-3.2,14.1-4.7,28.6-4.4,43-.3,14.9,1.3,29.7,4.8,44.2,3.2,11.8,8.2,20.6,15.1,26.5,6.9,5.9,15.8,8.8,26.9,8.8s18.1-2.5,24.2-7.6,10.8-13.3,13.8-24.7c1.7.6,3.3,1.7,4.3,3.2.9,1.6,1.4,3.4,1.3,5.2,0,3.1-1.1,6.2-2.9,8.7-2.3,3.4-5.2,6.3-8.6,8.6-4.4,2.9-9.3,5.1-14.4,6.5-6.6,1.7-13.5,2.5-20.4,2.4"/>
      <path class="st0" d="M240,374.96c-15.9,0-28.4-5.1-37.6-15.3-9.1-10.2-13.7-25.7-13.7-46.4s4.4-36,13.1-46.1c8.8-10.1,21.7-15.1,38.7-15.1,15.9,0,28.4,5,37.6,15.1,9.1,10,13.7,25.4,13.7,46.1s-4.4,36.3-13.1,46.4c-8.8,10.2-21.7,15.3-38.7,15.3M240.5,372.86c6.4.3,12.6-1.8,17.5-6,4.4-4,7.6-10.3,9.6-19,2.2-11.3,3.2-22.9,3-34.4.3-11.5-.8-23-3-34.3-2-8.7-5.2-15-9.6-18.9-5-4.1-11.3-6.2-17.7-5.8-6.3-.3-12.6,1.8-17.5,5.8-4.4,3.9-7.7,10.2-9.7,18.9-2.2,11.3-3.3,22.8-3,34.3-.3,11.6.8,23.1,3,34.4,2,8.7,5.2,15,9.7,19,4.9,4.1,11.2,6.2,17.6,6"/>
      <path class="st0" d="M505.7,374.96c-16.5,0-29.4-5.3-38.6-15.9-9.2-10.6-13.8-25.5-13.8-44.7s4.3-36.2,12.9-46.6c8.6-10.5,20.7-15.7,36.3-15.7,14.4,0,25.6,4.4,33.7,13.3,8.2,8.8,12.2,22,12.3,39.6v5.3h-73.6c-.1,12.2,1,24.3,3.3,36.3,2.1,9.1,5.4,15.8,10.1,20,5,4.4,11.6,6.6,18.2,6.3,5.1,0,10.2-1,14.9-3.1,4.4-2.1,8.1-5.2,10.9-9.2,3.1-4.5,5.1-9.6,6-14.9,1.7.2,3.1,1.2,4,2.7.9,1.4,1.3,3,1.3,4.6-.3,3.6-1.8,7-4.3,9.6-3.4,3.9-7.7,6.9-12.5,8.8-6.7,2.7-13.9,3.9-21.1,3.7M526,307.96c.2-10.5-.6-20.9-2.4-31.2-1.6-7.8-4.2-13.5-7.7-17.2-3.7-3.7-8.7-5.6-13.9-5.4-5.4-.2-10.7,1.8-14.7,5.5-3.8,3.6-6.7,9.4-8.6,17.2-2.2,10.2-3.5,20.7-3.8,31.2h51.2v-.1h-.1Z"/>
      <path class="st0" d="M610.6,425.86c-15.3,0-26.8-2.8-34.4-8.3-7.3-4.9-11.7-13.2-11.5-22-.1-4.7,1.1-9.4,3.6-13.4,2.6-4,6.4-7.1,10.8-9,5.8-2.4,12.1-3.5,18.4-3.3-5.1-1.4-9.7-4.4-12.9-8.6-2.8-3.6-4.3-8.1-4.3-12.6s1.6-8.8,4.3-12.3c3.4-4.3,8.1-7.4,13.4-9-6.8-2.3-12.7-6.7-16.9-12.5-4.4-6.5-6.6-14.2-6.3-22,0-12.7,3.5-22.7,10.4-30s17.3-10.9,31.2-10.9c4.7,0,9.4.6,13.9,1.9,4,1.2,7.7,3,11.1,5.4,2.7-2.8,5.7-5.4,8.8-7.7,3.7-2.9,8.3-4.4,13-4.3,3.6-.3,7,1,9.6,3.4,2.1,2.2,3.3,5.2,3.2,8.3,0,2.7-.9,5.3-2.8,7.3-2.5,2.1-5.7,3.2-9,2.9.3-3.6-.5-7.2-2.3-10.4-1.7-2.3-4.5-3.6-7.4-3.3-1.8,0-3.6.3-5.3,1-2.3,1.1-4.3,2.4-6.2,4.1,4.3,3.6,7.7,8.2,9.7,13.5,2.3,5.8,3.4,11.9,3.3,18.1.3,10-3.2,19.7-9.8,27.2-6.6,7.2-16.6,10.8-30,10.8s-5.4-.2-8.1-.6c-2.6-.4-5-.8-7.4-1.4-2.9,1-5.4,2.8-7.3,5.3-1.3,2-2,4.4-2,6.9-.3,3.3,1.3,6.5,4.1,8.4,3.7,2,8,3,12.3,2.7h24.9c13.1,0,22.5,3.1,28.1,9.3,5.8,6.6,8.8,15.1,8.5,23.8.4,11.8-4.9,23-14.3,30.1-9.5,7.4-24.3,11.2-44.3,11.2M612.4,423.66c14,0,24.3-2.5,31-7.6,6.6-5.1,10-12.6,9.9-22.4,0-7.7-2-13.3-6.1-16.9-4.1-3.6-10.3-5.4-18.7-5.4h-23.9c-3.9,0-7.8.7-11.4,2.2-3.7,1.6-6.8,4.3-8.8,7.7-2.5,4.7-3.7,10-3.4,15.3-.2,5.3,1.1,10.5,3.7,15.1,2.5,4.1,6.3,7.3,10.8,9.1,5.4,2.1,11.1,3.1,16.9,3M615.6,327.96c4.2.2,8.3-1.1,11.5-3.7,3.3-3.2,5.4-7.3,6.2-11.7,1.4-6.7,2-13.5,1.9-20.3.2-7.2-.5-14.4-2-21.5-.8-4.7-3-9-6.3-12.5-3.2-2.8-7.3-4.3-11.6-4.1-4.3-.2-8.4,1.4-11.5,4.3-3.3,3.6-5.5,8-6.5,12.7-1.5,7-2.1,14.1-2,21.2-.1,6.8.6,13.5,2.2,20.1.9,4.5,3.2,8.6,6.5,11.7,3.3,2.6,7.3,3.9,11.5,3.7"/>
      <path class="st0" d="M743.1,374.96c-16.5,0-29.4-5.3-38.6-15.9-9.2-10.6-13.8-25.5-13.7-44.7,0-20.6,4.3-36.2,12.9-46.6,8.6-10.5,20.7-15.7,36.3-15.7,14.4,0,25.6,4.4,33.7,13.3,8.1,8.8,12.2,22.1,12.1,39.6v5.3h-73.6c-.2,12.2,1,24.3,3.3,36.3,2.1,9.1,5.4,15.8,10,20,5.1,4.3,11.6,6.6,18.2,6.3,5.1,0,10.2-1,14.9-3.1,4.4-2.1,8.1-5.2,10.9-9.2,3.1-4.5,5.1-9.6,6-14.9,1.7.2,3.1,1.2,4,2.7.9,1.4,1.3,3,1.3,4.6-.3,3.6-1.8,7-4.3,9.6-3.4,3.9-7.7,6.9-12.5,8.8-6.7,2.7-13.9,3.9-21.1,3.7M763.3,307.96c.2-10.5-.6-20.9-2.4-31.2-1.6-7.8-4.2-13.5-7.7-17.2-3.7-3.7-8.7-5.6-13.9-5.4-5.5-.2-10.8,1.7-14.8,5.4-3.8,3.6-6.7,9.4-8.6,17.2-2.2,10.2-3.5,20.7-3.7,31.2h51.3-.2Z"/>
    </g>
  </g>
</svg>
